<svg width="330" height="85" viewBox="0 0 330 85" fill="none" xmlns="http://www.w3.org/2000/svg">
<rect width="330" height="85" fill="url(#paint0_linear)"/>
<mask id="mask0" mask-type="alpha" maskUnits="userSpaceOnUse" x="0" y="0" width="330" height="85">
<rect width="330" height="85" rx="8" fill="white"/>
</mask>
<g mask="url(#mask0)">
<path fill-rule="evenodd" clip-rule="evenodd" d="M249.5 33C254.747 33 259 28.7467 259 23.5C259 18.2533 254.747 14 249.5 14C244.253 14 240 18.2533 240 23.5C240 28.7467 244.253 33 249.5 33Z" fill="#D8D8D8" fill-opacity="0.27"/>
<path fill-rule="evenodd" clip-rule="evenodd" d="M272.5 59C278.851 59 284 53.8513 284 47.5C284 41.1487 278.851 36 272.5 36C266.149 36 261 41.1487 261 47.5C261 53.8513 266.149 59 272.5 59Z" fill="#D8D8D8" fill-opacity="0.27"/>
<path fill-rule="evenodd" clip-rule="evenodd" d="M246.5 74C251.747 74 256 69.7467 256 64.5C256 59.2533 251.747 55 246.5 55C241.253 55 237 59.2533 237 64.5C237 69.7467 241.253 74 246.5 74Z" fill="#D8D8D8" fill-opacity="0.27"/>
<path fill-rule="evenodd" clip-rule="evenodd" d="M295 36C301.075 36 306 31.0751 306 25C306 18.9249 301.075 14 295 14C288.925 14 284 18.9249 284 25C284 31.0751 288.925 36 295 36Z" fill="#D8D8D8" fill-opacity="0.27"/>
<path fill-rule="evenodd" clip-rule="evenodd" d="M293.5 71C298.194 71 302 67.1944 302 62.5C302 57.8056 298.194 54 293.5 54C288.806 54 285 57.8056 285 62.5C285 67.1944 288.806 71 293.5 71Z" fill="#D8D8D8" fill-opacity="0.27"/>
<path fill-rule="evenodd" clip-rule="evenodd" d="M317.5 51C322.194 51 326 47.1944 326 42.5C326 37.8056 322.194 34 317.5 34C312.806 34 309 37.8056 309 42.5C309 47.1944 312.806 51 317.5 51Z" fill="#D8D8D8" fill-opacity="0.27"/>
<path fill-rule="evenodd" clip-rule="evenodd" d="M294.5 48C296.985 48 299 45.9853 299 43.5C299 41.0147 296.985 39 294.5 39C292.015 39 290 41.0147 290 43.5C290 45.9853 292.015 48 294.5 48Z" fill="#D8D8D8" fill-opacity="0.27"/>
<path fill-rule="evenodd" clip-rule="evenodd" d="M318.5 29C322.642 29 326 25.6421 326 21.5C326 17.3579 322.642 14 318.5 14C314.358 14 311 17.3579 311 21.5C311 25.6421 314.358 29 318.5 29Z" fill="#D8D8D8" fill-opacity="0.27"/>
<path fill-rule="evenodd" clip-rule="evenodd" d="M294.5 8C298.642 8 302 4.64214 302 0.5C302 -3.64214 298.642 -7 294.5 -7C290.358 -7 287 -3.64214 287 0.5C287 4.64214 290.358 8 294.5 8Z" fill="#D8D8D8" fill-opacity="0.27"/>
<path fill-rule="evenodd" clip-rule="evenodd" d="M317.5 66C319.985 66 322 63.9853 322 61.5C322 59.0147 319.985 57 317.5 57C315.015 57 313 59.0147 313 61.5C313 63.9853 315.015 66 317.5 66Z" fill="#D8D8D8" fill-opacity="0.27"/>
<path fill-rule="evenodd" clip-rule="evenodd" d="M314.5 88C319.194 88 323 84.1944 323 79.5C323 74.8056 319.194 71 314.5 71C309.806 71 306 74.8056 306 79.5C306 84.1944 309.806 88 314.5 88Z" fill="#D8D8D8" fill-opacity="0.27"/>
<path fill-rule="evenodd" clip-rule="evenodd" d="M226.5 45C231.194 45 235 41.1944 235 36.5C235 31.8056 231.194 28 226.5 28C221.806 28 218 31.8056 218 36.5C218 41.1944 221.806 45 226.5 45Z" fill="#D8D8D8" fill-opacity="0.27"/>
<path fill-rule="evenodd" clip-rule="evenodd" d="M292 88C295.314 88 298 85.3137 298 82C298 78.6863 295.314 76 292 76C288.686 76 286 78.6863 286 82C286 85.3137 288.686 88 292 88Z" fill="#D8D8D8" fill-opacity="0.27"/>
<path fill-rule="evenodd" clip-rule="evenodd" d="M271.5 21C275.09 21 278 18.0899 278 14.5C278 10.9101 275.09 8 271.5 8C267.91 8 265 10.9101 265 14.5C265 18.0899 267.91 21 271.5 21Z" fill="#D8D8D8" fill-opacity="0.27"/>
<path fill-rule="evenodd" clip-rule="evenodd" d="M227.5 93C232.747 93 237 88.7467 237 83.5C237 78.2533 232.747 74 227.5 74C222.253 74 218 78.2533 218 83.5C218 88.7467 222.253 93 227.5 93Z" fill="#D8D8D8" fill-opacity="0.27"/>
<path fill-rule="evenodd" clip-rule="evenodd" d="M242.5 48C244.985 48 247 45.9853 247 43.5C247 41.0147 244.985 39 242.5 39C240.015 39 238 41.0147 238 43.5C238 45.9853 240.015 48 242.5 48Z" fill="#D8D8D8" fill-opacity="0.27"/>
<path fill-rule="evenodd" clip-rule="evenodd" d="M273.5 77C277.09 77 280 74.0899 280 70.5C280 66.9101 277.09 64 273.5 64C269.91 64 267 66.9101 267 70.5C267 74.0899 269.91 77 273.5 77Z" fill="#D8D8D8" fill-opacity="0.27"/>
</g>
<defs>
<linearGradient id="paint0_linear" x1="160.014" y1="124.328" x2="201.083" y2="-32.5265" gradientUnits="userSpaceOnUse">
<stop stop-color="#00E19D"/>
<stop offset="1" stop-color="#008FD6"/>
</linearGradient>
</defs>
</svg>
